%TF.GenerationSoftware,KiCad,Pcbnew,(6.0.2)*%
%TF.CreationDate,2022-03-15T19:59:36+01:00*%
%TF.ProjectId,GPSDO,47505344-4f2e-46b6-9963-61645f706362,rev?*%
%TF.SameCoordinates,Original*%
%TF.FileFunction,Copper,L1,Top*%
%TF.FilePolarity,Positive*%
%FSLAX46Y46*%
G04 Gerber Fmt 4.6, Leading zero omitted, Abs format (unit mm)*
G04 Created by KiCad (PCBNEW (6.0.2)) date 2022-03-15 19:59:36*
%MOMM*%
%LPD*%
G01*
G04 APERTURE LIST*
G04 Aperture macros list*
%AMRoundRect*
0 Rectangle with rounded corners*
0 $1 Rounding radius*
0 $2 $3 $4 $5 $6 $7 $8 $9 X,Y pos of 4 corners*
0 Add a 4 corners polygon primitive as box body*
4,1,4,$2,$3,$4,$5,$6,$7,$8,$9,$2,$3,0*
0 Add four circle primitives for the rounded corners*
1,1,$1+$1,$2,$3*
1,1,$1+$1,$4,$5*
1,1,$1+$1,$6,$7*
1,1,$1+$1,$8,$9*
0 Add four rect primitives between the rounded corners*
20,1,$1+$1,$2,$3,$4,$5,0*
20,1,$1+$1,$4,$5,$6,$7,0*
20,1,$1+$1,$6,$7,$8,$9,0*
20,1,$1+$1,$8,$9,$2,$3,0*%
G04 Aperture macros list end*
%ADD10C,0.150000*%
%TA.AperFunction,NonConductor*%
%ADD11C,0.150000*%
%TD*%
%TA.AperFunction,ComponentPad*%
%ADD12R,1.600000X1.600000*%
%TD*%
%TA.AperFunction,ComponentPad*%
%ADD13O,1.600000X1.600000*%
%TD*%
%TA.AperFunction,ComponentPad*%
%ADD14O,1.700000X1.700000*%
%TD*%
%TA.AperFunction,ComponentPad*%
%ADD15R,1.700000X1.700000*%
%TD*%
%TA.AperFunction,ComponentPad*%
%ADD16C,3.000000*%
%TD*%
%TA.AperFunction,ComponentPad*%
%ADD17C,6.400000*%
%TD*%
%TA.AperFunction,ComponentPad*%
%ADD18O,1.905000X2.000000*%
%TD*%
%TA.AperFunction,ComponentPad*%
%ADD19R,1.905000X2.000000*%
%TD*%
%TA.AperFunction,ComponentPad*%
%ADD20C,1.600000*%
%TD*%
%TA.AperFunction,ComponentPad*%
%ADD21R,2.400000X2.400000*%
%TD*%
%TA.AperFunction,ComponentPad*%
%ADD22C,2.400000*%
%TD*%
%TA.AperFunction,ComponentPad*%
%ADD23O,2.000000X2.000000*%
%TD*%
%TA.AperFunction,ComponentPad*%
%ADD24R,2.000000X2.000000*%
%TD*%
%TA.AperFunction,ComponentPad*%
%ADD25C,0.800000*%
%TD*%
%TA.AperFunction,ComponentPad*%
%ADD26RoundRect,0.249999X-1.300001X1.300001X-1.300001X-1.300001X1.300001X-1.300001X1.300001X1.300001X0*%
%TD*%
%TA.AperFunction,ComponentPad*%
%ADD27C,3.100000*%
%TD*%
%TA.AperFunction,ComponentPad*%
%ADD28O,1.050000X1.500000*%
%TD*%
%TA.AperFunction,ComponentPad*%
%ADD29R,1.050000X1.500000*%
%TD*%
%TA.AperFunction,ComponentPad*%
%ADD30C,2.340000*%
%TD*%
%TA.AperFunction,ViaPad*%
%ADD31C,0.800000*%
%TD*%
%TA.AperFunction,Conductor*%
%ADD32C,0.500000*%
%TD*%
%TA.AperFunction,Conductor*%
%ADD33C,0.250000*%
%TD*%
%TA.AperFunction,Conductor*%
%ADD34C,2.000000*%
%TD*%
%TA.AperFunction,Conductor*%
%ADD35C,1.000000*%
%TD*%
G04 APERTURE END LIST*
D10*
D11*
X58350714Y-34166071D02*
X59207857Y-34166071D01*
X58779285Y-35666071D02*
X58779285Y-34166071D01*
X59707857Y-35666071D02*
X59707857Y-34666071D01*
X59707857Y-34951785D02*
X59779285Y-34808928D01*
X59850714Y-34737500D01*
X59993571Y-34666071D01*
X60136428Y-34666071D01*
X61279285Y-34666071D02*
X61279285Y-35666071D01*
X60636428Y-34666071D02*
X60636428Y-35451785D01*
X60707857Y-35594642D01*
X60850714Y-35666071D01*
X61064999Y-35666071D01*
X61207857Y-35594642D01*
X61279285Y-35523214D01*
X62564999Y-35594642D02*
X62422142Y-35666071D01*
X62136428Y-35666071D01*
X61993571Y-35594642D01*
X61922142Y-35451785D01*
X61922142Y-34880357D01*
X61993571Y-34737500D01*
X62136428Y-34666071D01*
X62422142Y-34666071D01*
X62564999Y-34737500D01*
X62636428Y-34880357D01*
X62636428Y-35023214D01*
X61922142Y-35166071D01*
X63279285Y-35666071D02*
X63279285Y-34166071D01*
X63850714Y-34166071D01*
X63993571Y-34237500D01*
X64064999Y-34308928D01*
X64136428Y-34451785D01*
X64136428Y-34666071D01*
X64064999Y-34808928D01*
X63993571Y-34880357D01*
X63850714Y-34951785D01*
X63279285Y-34951785D01*
X64993571Y-35666071D02*
X64850714Y-35594642D01*
X64779285Y-35523214D01*
X64707857Y-35380357D01*
X64707857Y-34951785D01*
X64779285Y-34808928D01*
X64850714Y-34737500D01*
X64993571Y-34666071D01*
X65207857Y-34666071D01*
X65350714Y-34737500D01*
X65422142Y-34808928D01*
X65493571Y-34951785D01*
X65493571Y-35380357D01*
X65422142Y-35523214D01*
X65350714Y-35594642D01*
X65207857Y-35666071D01*
X64993571Y-35666071D01*
X66064999Y-35594642D02*
X66207857Y-35666071D01*
X66493571Y-35666071D01*
X66636428Y-35594642D01*
X66707857Y-35451785D01*
X66707857Y-35380357D01*
X66636428Y-35237500D01*
X66493571Y-35166071D01*
X66279285Y-35166071D01*
X66136428Y-35094642D01*
X66064999Y-34951785D01*
X66064999Y-34880357D01*
X66136428Y-34737500D01*
X66279285Y-34666071D01*
X66493571Y-34666071D01*
X66636428Y-34737500D01*
X67350714Y-35666071D02*
X67350714Y-34666071D01*
X67350714Y-34166071D02*
X67279285Y-34237500D01*
X67350714Y-34308928D01*
X67422142Y-34237500D01*
X67350714Y-34166071D01*
X67350714Y-34308928D01*
X67850714Y-34666071D02*
X68422142Y-34666071D01*
X68064999Y-34166071D02*
X68064999Y-35451785D01*
X68136428Y-35594642D01*
X68279285Y-35666071D01*
X68422142Y-35666071D01*
X68922142Y-35666071D02*
X68922142Y-34666071D01*
X68922142Y-34166071D02*
X68850714Y-34237500D01*
X68922142Y-34308928D01*
X68993571Y-34237500D01*
X68922142Y-34166071D01*
X68922142Y-34308928D01*
X69850714Y-35666071D02*
X69707857Y-35594642D01*
X69636428Y-35523214D01*
X69564999Y-35380357D01*
X69564999Y-34951785D01*
X69636428Y-34808928D01*
X69707857Y-34737500D01*
X69850714Y-34666071D01*
X70064999Y-34666071D01*
X70207857Y-34737500D01*
X70279285Y-34808928D01*
X70350714Y-34951785D01*
X70350714Y-35380357D01*
X70279285Y-35523214D01*
X70207857Y-35594642D01*
X70064999Y-35666071D01*
X69850714Y-35666071D01*
X70993571Y-34666071D02*
X70993571Y-35666071D01*
X70993571Y-34808928D02*
X71064999Y-34737500D01*
X71207857Y-34666071D01*
X71422142Y-34666071D01*
X71564999Y-34737500D01*
X71636428Y-34880357D01*
X71636428Y-35666071D01*
X74279285Y-34237500D02*
X74136428Y-34166071D01*
X73922142Y-34166071D01*
X73707857Y-34237500D01*
X73564999Y-34380357D01*
X73493571Y-34523214D01*
X73422142Y-34808928D01*
X73422142Y-35023214D01*
X73493571Y-35308928D01*
X73564999Y-35451785D01*
X73707857Y-35594642D01*
X73922142Y-35666071D01*
X74064999Y-35666071D01*
X74279285Y-35594642D01*
X74350714Y-35523214D01*
X74350714Y-35023214D01*
X74064999Y-35023214D01*
X74993571Y-35666071D02*
X74993571Y-34166071D01*
X75564999Y-34166071D01*
X75707857Y-34237500D01*
X75779285Y-34308928D01*
X75850714Y-34451785D01*
X75850714Y-34666071D01*
X75779285Y-34808928D01*
X75707857Y-34880357D01*
X75564999Y-34951785D01*
X74993571Y-34951785D01*
X76422142Y-35594642D02*
X76636428Y-35666071D01*
X76993571Y-35666071D01*
X77136428Y-35594642D01*
X77207857Y-35523214D01*
X77279285Y-35380357D01*
X77279285Y-35237500D01*
X77207857Y-35094642D01*
X77136428Y-35023214D01*
X76993571Y-34951785D01*
X76707857Y-34880357D01*
X76564999Y-34808928D01*
X76493571Y-34737500D01*
X76422142Y-34594642D01*
X76422142Y-34451785D01*
X76493571Y-34308928D01*
X76564999Y-34237500D01*
X76707857Y-34166071D01*
X77064999Y-34166071D01*
X77279285Y-34237500D01*
X77922142Y-35666071D02*
X77922142Y-34166071D01*
X78279285Y-34166071D01*
X78493571Y-34237500D01*
X78636428Y-34380357D01*
X78707857Y-34523214D01*
X78779285Y-34808928D01*
X78779285Y-35023214D01*
X78707857Y-35308928D01*
X78636428Y-35451785D01*
X78493571Y-35594642D01*
X78279285Y-35666071D01*
X77922142Y-35666071D01*
X79707857Y-34166071D02*
X79993571Y-34166071D01*
X80136428Y-34237500D01*
X80279285Y-34380357D01*
X80350714Y-34666071D01*
X80350714Y-35166071D01*
X80279285Y-35451785D01*
X80136428Y-35594642D01*
X79993571Y-35666071D01*
X79707857Y-35666071D01*
X79564999Y-35594642D01*
X79422142Y-35451785D01*
X79350714Y-35166071D01*
X79350714Y-34666071D01*
X79422142Y-34380357D01*
X79564999Y-34237500D01*
X79707857Y-34166071D01*
X82993571Y-35523214D02*
X82922142Y-35594642D01*
X82707857Y-35666071D01*
X82564999Y-35666071D01*
X82350714Y-35594642D01*
X82207857Y-35451785D01*
X82136428Y-35308928D01*
X82064999Y-35023214D01*
X82064999Y-34808928D01*
X82136428Y-34523214D01*
X82207857Y-34380357D01*
X82350714Y-34237500D01*
X82564999Y-34166071D01*
X82707857Y-34166071D01*
X82922142Y-34237500D01*
X82993571Y-34308928D01*
X83850714Y-35666071D02*
X83707857Y-35594642D01*
X83636428Y-35523214D01*
X83564999Y-35380357D01*
X83564999Y-34951785D01*
X83636428Y-34808928D01*
X83707857Y-34737500D01*
X83850714Y-34666071D01*
X84064999Y-34666071D01*
X84207857Y-34737500D01*
X84279285Y-34808928D01*
X84350714Y-34951785D01*
X84350714Y-35380357D01*
X84279285Y-35523214D01*
X84207857Y-35594642D01*
X84064999Y-35666071D01*
X83850714Y-35666071D01*
X84993571Y-34666071D02*
X84993571Y-35666071D01*
X84993571Y-34808928D02*
X85064999Y-34737500D01*
X85207857Y-34666071D01*
X85422142Y-34666071D01*
X85564999Y-34737500D01*
X85636428Y-34880357D01*
X85636428Y-35666071D01*
X86136428Y-34666071D02*
X86707857Y-34666071D01*
X86350714Y-34166071D02*
X86350714Y-35451785D01*
X86422142Y-35594642D01*
X86564999Y-35666071D01*
X86707857Y-35666071D01*
X87207857Y-35666071D02*
X87207857Y-34666071D01*
X87207857Y-34951785D02*
X87279285Y-34808928D01*
X87350714Y-34737500D01*
X87493571Y-34666071D01*
X87636428Y-34666071D01*
X88350714Y-35666071D02*
X88207857Y-35594642D01*
X88136428Y-35523214D01*
X88065000Y-35380357D01*
X88065000Y-34951785D01*
X88136428Y-34808928D01*
X88207857Y-34737500D01*
X88350714Y-34666071D01*
X88565000Y-34666071D01*
X88707857Y-34737500D01*
X88779285Y-34808928D01*
X88850714Y-34951785D01*
X88850714Y-35380357D01*
X88779285Y-35523214D01*
X88707857Y-35594642D01*
X88565000Y-35666071D01*
X88350714Y-35666071D01*
X89707857Y-35666071D02*
X89565000Y-35594642D01*
X89493571Y-35451785D01*
X89493571Y-34166071D01*
X90493571Y-35666071D02*
X90350714Y-35594642D01*
X90279285Y-35451785D01*
X90279285Y-34166071D01*
X91636428Y-35594642D02*
X91493571Y-35666071D01*
X91207857Y-35666071D01*
X91065000Y-35594642D01*
X90993571Y-35451785D01*
X90993571Y-34880357D01*
X91065000Y-34737500D01*
X91207857Y-34666071D01*
X91493571Y-34666071D01*
X91636428Y-34737500D01*
X91707857Y-34880357D01*
X91707857Y-35023214D01*
X90993571Y-35166071D01*
X92350714Y-35666071D02*
X92350714Y-34666071D01*
X92350714Y-34951785D02*
X92422142Y-34808928D01*
X92493571Y-34737500D01*
X92636428Y-34666071D01*
X92779285Y-34666071D01*
X61350714Y-38652500D02*
X61279285Y-38581071D01*
X61136428Y-38366785D01*
X61065000Y-38223928D01*
X60993571Y-38009642D01*
X60922142Y-37652500D01*
X60922142Y-37366785D01*
X60993571Y-37009642D01*
X61065000Y-36795357D01*
X61136428Y-36652500D01*
X61279285Y-36438214D01*
X61350714Y-36366785D01*
X62565000Y-38009642D02*
X62422142Y-38081071D01*
X62136428Y-38081071D01*
X61993571Y-38009642D01*
X61922142Y-37938214D01*
X61850714Y-37795357D01*
X61850714Y-37366785D01*
X61922142Y-37223928D01*
X61993571Y-37152500D01*
X62136428Y-37081071D01*
X62422142Y-37081071D01*
X62565000Y-37152500D01*
X63065000Y-38652500D02*
X63136428Y-38581071D01*
X63279285Y-38366785D01*
X63350714Y-38223928D01*
X63422142Y-38009642D01*
X63493571Y-37652500D01*
X63493571Y-37366785D01*
X63422142Y-37009642D01*
X63350714Y-36795357D01*
X63279285Y-36652500D01*
X63136428Y-36438214D01*
X63065000Y-36366785D01*
X65279285Y-38009642D02*
X65493571Y-38081071D01*
X65850714Y-38081071D01*
X65993571Y-38009642D01*
X66065000Y-37938214D01*
X66136428Y-37795357D01*
X66136428Y-37652500D01*
X66065000Y-37509642D01*
X65993571Y-37438214D01*
X65850714Y-37366785D01*
X65565000Y-37295357D01*
X65422142Y-37223928D01*
X65350714Y-37152500D01*
X65279285Y-37009642D01*
X65279285Y-36866785D01*
X65350714Y-36723928D01*
X65422142Y-36652500D01*
X65565000Y-36581071D01*
X65922142Y-36581071D01*
X66136428Y-36652500D01*
X66636428Y-37081071D02*
X67422142Y-37081071D01*
X66636428Y-38081071D01*
X67422142Y-38081071D01*
X68636428Y-38081071D02*
X68636428Y-37295357D01*
X68565000Y-37152500D01*
X68422142Y-37081071D01*
X68136428Y-37081071D01*
X67993571Y-37152500D01*
X68636428Y-38009642D02*
X68493571Y-38081071D01*
X68136428Y-38081071D01*
X67993571Y-38009642D01*
X67922142Y-37866785D01*
X67922142Y-37723928D01*
X67993571Y-37581071D01*
X68136428Y-37509642D01*
X68493571Y-37509642D01*
X68636428Y-37438214D01*
X69350714Y-38081071D02*
X69350714Y-36581071D01*
X69350714Y-37152500D02*
X69493571Y-37081071D01*
X69779285Y-37081071D01*
X69922142Y-37152500D01*
X69993571Y-37223928D01*
X70065000Y-37366785D01*
X70065000Y-37795357D01*
X69993571Y-37938214D01*
X69922142Y-38009642D01*
X69779285Y-38081071D01*
X69493571Y-38081071D01*
X69350714Y-38009642D01*
X70922142Y-38081071D02*
X70779285Y-38009642D01*
X70707857Y-37938214D01*
X70636428Y-37795357D01*
X70636428Y-37366785D01*
X70707857Y-37223928D01*
X70779285Y-37152500D01*
X70922142Y-37081071D01*
X71136428Y-37081071D01*
X71279285Y-37152500D01*
X71350714Y-37223928D01*
X71422142Y-37366785D01*
X71422142Y-37795357D01*
X71350714Y-37938214D01*
X71279285Y-38009642D01*
X71136428Y-38081071D01*
X70922142Y-38081071D01*
X72279285Y-38081071D02*
X72136428Y-38009642D01*
X72065000Y-37866785D01*
X72065000Y-36581071D01*
X73493571Y-38009642D02*
X73350714Y-38081071D01*
X73065000Y-38081071D01*
X72922142Y-38009642D01*
X72850714Y-37938214D01*
X72779285Y-37795357D01*
X72779285Y-37366785D01*
X72850714Y-37223928D01*
X72922142Y-37152500D01*
X73065000Y-37081071D01*
X73350714Y-37081071D01*
X73493571Y-37152500D01*
X74065000Y-38009642D02*
X74207857Y-38081071D01*
X74493571Y-38081071D01*
X74636428Y-38009642D01*
X74707857Y-37866785D01*
X74707857Y-37795357D01*
X74636428Y-37652500D01*
X74493571Y-37581071D01*
X74279285Y-37581071D01*
X74136428Y-37509642D01*
X74065000Y-37366785D01*
X74065000Y-37295357D01*
X74136428Y-37152500D01*
X74279285Y-37081071D01*
X74493571Y-37081071D01*
X74636428Y-37152500D01*
X76422142Y-38009642D02*
X76636428Y-38081071D01*
X76993571Y-38081071D01*
X77136428Y-38009642D01*
X77207857Y-37938214D01*
X77279285Y-37795357D01*
X77279285Y-37652500D01*
X77207857Y-37509642D01*
X77136428Y-37438214D01*
X76993571Y-37366785D01*
X76707857Y-37295357D01*
X76565000Y-37223928D01*
X76493571Y-37152500D01*
X76422142Y-37009642D01*
X76422142Y-36866785D01*
X76493571Y-36723928D01*
X76565000Y-36652500D01*
X76707857Y-36581071D01*
X77065000Y-36581071D01*
X77279285Y-36652500D01*
X77779285Y-37081071D02*
X78565000Y-37081071D01*
X77779285Y-38081071D01*
X78565000Y-38081071D01*
X79136428Y-38081071D02*
X79136428Y-37081071D01*
X79136428Y-36581071D02*
X79065000Y-36652500D01*
X79136428Y-36723928D01*
X79207857Y-36652500D01*
X79136428Y-36581071D01*
X79136428Y-36723928D01*
X80493571Y-37081071D02*
X80493571Y-38295357D01*
X80422142Y-38438214D01*
X80350714Y-38509642D01*
X80207857Y-38581071D01*
X79993571Y-38581071D01*
X79850714Y-38509642D01*
X80493571Y-38009642D02*
X80350714Y-38081071D01*
X80065000Y-38081071D01*
X79922142Y-38009642D01*
X79850714Y-37938214D01*
X79779285Y-37795357D01*
X79779285Y-37366785D01*
X79850714Y-37223928D01*
X79922142Y-37152500D01*
X80065000Y-37081071D01*
X80350714Y-37081071D01*
X80493571Y-37152500D01*
X81779285Y-38009642D02*
X81636428Y-38081071D01*
X81350714Y-38081071D01*
X81207857Y-38009642D01*
X81136428Y-37866785D01*
X81136428Y-37295357D01*
X81207857Y-37152500D01*
X81350714Y-37081071D01*
X81636428Y-37081071D01*
X81779285Y-37152500D01*
X81850714Y-37295357D01*
X81850714Y-37438214D01*
X81136428Y-37581071D01*
X82279285Y-37081071D02*
X82850714Y-37081071D01*
X82493571Y-36581071D02*
X82493571Y-37866785D01*
X82565000Y-38009642D01*
X82707857Y-38081071D01*
X82850714Y-38081071D01*
X83350714Y-38081071D02*
X83350714Y-37081071D01*
X83350714Y-36581071D02*
X83279285Y-36652500D01*
X83350714Y-36723928D01*
X83422142Y-36652500D01*
X83350714Y-36581071D01*
X83350714Y-36723928D01*
X85136428Y-36723928D02*
X85207857Y-36652500D01*
X85350714Y-36581071D01*
X85707857Y-36581071D01*
X85850714Y-36652500D01*
X85922142Y-36723928D01*
X85993571Y-36866785D01*
X85993571Y-37009642D01*
X85922142Y-37223928D01*
X85065000Y-38081071D01*
X85993571Y-38081071D01*
X86922142Y-36581071D02*
X87065000Y-36581071D01*
X87207857Y-36652500D01*
X87279285Y-36723928D01*
X87350714Y-36866785D01*
X87422142Y-37152500D01*
X87422142Y-37509642D01*
X87350714Y-37795357D01*
X87279285Y-37938214D01*
X87207857Y-38009642D01*
X87065000Y-38081071D01*
X86922142Y-38081071D01*
X86779285Y-38009642D01*
X86707857Y-37938214D01*
X86636428Y-37795357D01*
X86565000Y-37509642D01*
X86565000Y-37152500D01*
X86636428Y-36866785D01*
X86707857Y-36723928D01*
X86779285Y-36652500D01*
X86922142Y-36581071D01*
X87993571Y-36723928D02*
X88065000Y-36652500D01*
X88207857Y-36581071D01*
X88565000Y-36581071D01*
X88707857Y-36652500D01*
X88779285Y-36723928D01*
X88850714Y-36866785D01*
X88850714Y-37009642D01*
X88779285Y-37223928D01*
X87922142Y-38081071D01*
X88850714Y-38081071D01*
X89779285Y-36581071D02*
X89922142Y-36581071D01*
X90065000Y-36652500D01*
X90136428Y-36723928D01*
X90207857Y-36866785D01*
X90279285Y-37152500D01*
X90279285Y-37509642D01*
X90207857Y-37795357D01*
X90136428Y-37938214D01*
X90065000Y-38009642D01*
X89922142Y-38081071D01*
X89779285Y-38081071D01*
X89636428Y-38009642D01*
X89565000Y-37938214D01*
X89493571Y-37795357D01*
X89422142Y-37509642D01*
X89422142Y-37152500D01*
X89493571Y-36866785D01*
X89565000Y-36723928D01*
X89636428Y-36652500D01*
X89779285Y-36581071D01*
D12*
%TO.P,BP1,1*%
%TO.N,Net-(BP1-Pad1)*%
X150495000Y-45720000D03*
D13*
%TO.P,BP1,21*%
%TO.N,Net-(BP1-Pad21)*%
X165735000Y-93980000D03*
%TO.P,BP1,2*%
%TO.N,Net-(BP1-Pad2)*%
X150495000Y-48260000D03*
%TO.P,BP1,22*%
%TO.N,Net-(BP1-Pad22)*%
X165735000Y-91440000D03*
%TO.P,BP1,3*%
%TO.N,Net-(BP1-Pad3)*%
X150495000Y-50800000D03*
%TO.P,BP1,23*%
%TO.N,Net-(BP1-Pad23)*%
X165735000Y-88900000D03*
%TO.P,BP1,4*%
%TO.N,Net-(BP1-Pad4)*%
X150495000Y-53340000D03*
%TO.P,BP1,24*%
%TO.N,Net-(BP1-Pad24)*%
X165735000Y-86360000D03*
%TO.P,BP1,5*%
%TO.N,Net-(BP1-Pad5)*%
X150495000Y-55880000D03*
%TO.P,BP1,25*%
%TO.N,Net-(BP1-Pad25)*%
X165735000Y-83820000D03*
%TO.P,BP1,6*%
%TO.N,Net-(BP1-Pad6)*%
X150495000Y-58420000D03*
%TO.P,BP1,26*%
%TO.N,Net-(BP1-Pad26)*%
X165735000Y-81280000D03*
%TO.P,BP1,7*%
%TO.N,Net-(BP1-Pad7)*%
X150495000Y-60960000D03*
%TO.P,BP1,27*%
%TO.N,Net-(BP1-Pad27)*%
X165735000Y-78740000D03*
%TO.P,BP1,8*%
%TO.N,Net-(BP1-Pad8)*%
X150495000Y-63500000D03*
%TO.P,BP1,28*%
%TO.N,Net-(BP1-Pad28)*%
X165735000Y-76200000D03*
%TO.P,BP1,9*%
%TO.N,Net-(BP1-Pad9)*%
X150495000Y-66040000D03*
%TO.P,BP1,29*%
%TO.N,Net-(BP1-Pad29)*%
X165735000Y-73660000D03*
%TO.P,BP1,10*%
%TO.N,Net-(BP1-Pad10)*%
X150495000Y-68580000D03*
%TO.P,BP1,30*%
%TO.N,Net-(BP1-Pad30)*%
X165735000Y-71120000D03*
%TO.P,BP1,11*%
%TO.N,Net-(BP1-Pad11)*%
X150495000Y-71120000D03*
%TO.P,BP1,31*%
%TO.N,Net-(BP1-Pad31)*%
X165735000Y-68580000D03*
%TO.P,BP1,12*%
%TO.N,Net-(BP1-Pad12)*%
X150495000Y-73660000D03*
%TO.P,BP1,32*%
%TO.N,Net-(BP1-Pad32)*%
X165735000Y-66040000D03*
%TO.P,BP1,13*%
%TO.N,Net-(BP1-Pad13)*%
X150495000Y-76200000D03*
%TO.P,BP1,33*%
%TO.N,Net-(BP1-Pad33)*%
X165735000Y-63500000D03*
%TO.P,BP1,14*%
%TO.N,Net-(BP1-Pad14)*%
X150495000Y-78740000D03*
%TO.P,BP1,34*%
%TO.N,Net-(BP1-Pad34)*%
X165735000Y-60960000D03*
%TO.P,BP1,15*%
%TO.N,Net-(BP1-Pad15)*%
X150495000Y-81280000D03*
%TO.P,BP1,35*%
%TO.N,Net-(BP1-Pad35)*%
X165735000Y-58420000D03*
%TO.P,BP1,16*%
%TO.N,Net-(BP1-Pad16)*%
X150495000Y-83820000D03*
%TO.P,BP1,36*%
%TO.N,Net-(BP1-Pad36)*%
X165735000Y-55880000D03*
%TO.P,BP1,17*%
%TO.N,Net-(BP1-Pad17)*%
X150495000Y-86360000D03*
%TO.P,BP1,37*%
%TO.N,Net-(BP1-Pad37)*%
X165735000Y-53340000D03*
%TO.P,BP1,18*%
%TO.N,+5V*%
X150495000Y-88900000D03*
%TO.P,BP1,38*%
%TO.N,Net-(BP1-Pad38)*%
X165735000Y-50800000D03*
%TO.P,BP1,19*%
%TO.N,GND*%
X150495000Y-91440000D03*
%TO.P,BP1,39*%
X165735000Y-48260000D03*
%TO.P,BP1,20*%
%TO.N,Net-(BP1-Pad20)*%
X150495000Y-93980000D03*
%TO.P,BP1,40*%
%TO.N,GND*%
X165735000Y-45720000D03*
%TD*%
D14*
%TO.P,J4,3*%
%TO.N,GND*%
X127000000Y-99695000D03*
%TO.P,J4,2*%
X124460000Y-99695000D03*
D15*
%TO.P,J4,1*%
%TO.N,+10V*%
X121920000Y-99695000D03*
%TD*%
D16*
%TO.P,T1,3*%
%TO.N,Net-(D5-Pad2)*%
X67230000Y-87785000D03*
%TO.P,T1,4*%
%TO.N,Net-(D5-Pad4)*%
X87230000Y-87785000D03*
%TO.P,T1,2*%
%TO.N,Net-(J2-Pad2)*%
X92230000Y-57785000D03*
%TO.P,T1,1*%
%TO.N,Net-(J2-Pad1)*%
X62230000Y-57785000D03*
%TD*%
D17*
%TO.P,H6,1*%
%TO.N,N/C*%
X110490000Y-36195000D03*
%TD*%
%TO.P,H5,1*%
%TO.N,N/C*%
X193675000Y-102235000D03*
%TD*%
%TO.P,H3,1*%
%TO.N,N/C*%
X193675000Y-36195000D03*
%TD*%
%TO.P,H2,1*%
%TO.N,N/C*%
X42545000Y-36195000D03*
%TD*%
%TO.P,H1,1*%
%TO.N,N/C*%
X110490000Y-102235000D03*
%TD*%
D18*
%TO.P,U1,3*%
%TO.N,+5V*%
X140335000Y-36830000D03*
%TO.P,U1,2*%
%TO.N,GND*%
X137795000Y-36830000D03*
D19*
%TO.P,U1,1*%
%TO.N,Net-(C1-Pad1)*%
X135255000Y-36830000D03*
%TD*%
D14*
%TO.P,D4,2*%
%TO.N,Net-(D4-Pad2)*%
X192405000Y-92710000D03*
D15*
%TO.P,D4,1*%
%TO.N,GND*%
X192405000Y-90170000D03*
%TD*%
D14*
%TO.P,D3,2*%
%TO.N,Net-(D3-Pad2)*%
X192405000Y-78740000D03*
D15*
%TO.P,D3,1*%
%TO.N,GND*%
X192405000Y-76200000D03*
%TD*%
D14*
%TO.P,D2,2*%
%TO.N,Net-(D2-Pad2)*%
X192405000Y-71755000D03*
D15*
%TO.P,D2,1*%
%TO.N,GND*%
X192405000Y-69215000D03*
%TD*%
D14*
%TO.P,D1,2*%
%TO.N,Net-(D1-Pad2)*%
X192405000Y-85725000D03*
D15*
%TO.P,D1,1*%
%TO.N,GND*%
X192405000Y-83185000D03*
%TD*%
D20*
%TO.P,C1,1*%
%TO.N,Net-(C1-Pad1)*%
X124460000Y-80645000D03*
%TO.P,C1,2*%
%TO.N,GND*%
X121960000Y-80645000D03*
%TD*%
D21*
%TO.P,C2,1*%
%TO.N,Net-(C1-Pad1)*%
X134620000Y-66040000D03*
D22*
%TO.P,C2,2*%
%TO.N,GND*%
X127120000Y-66040000D03*
%TD*%
D20*
%TO.P,C3,1*%
%TO.N,Net-(C1-Pad1)*%
X133390000Y-41910000D03*
%TO.P,C3,2*%
%TO.N,GND*%
X135890000Y-41910000D03*
%TD*%
%TO.P,C4,2*%
%TO.N,GND*%
X123150000Y-41910000D03*
%TO.P,C4,1*%
%TO.N,Net-(C1-Pad1)*%
X120650000Y-41910000D03*
%TD*%
%TO.P,C5,1*%
%TO.N,+5V*%
X142240000Y-41910000D03*
%TO.P,C5,2*%
%TO.N,GND*%
X139740000Y-41910000D03*
%TD*%
%TO.P,C6,2*%
%TO.N,GND*%
X127000000Y-41910000D03*
%TO.P,C6,1*%
%TO.N,+10V*%
X129500000Y-41910000D03*
%TD*%
%TO.P,C7,2*%
%TO.N,GND*%
X136430000Y-49530000D03*
D12*
%TO.P,C7,1*%
%TO.N,+5V*%
X138430000Y-49530000D03*
%TD*%
%TO.P,C8,1*%
%TO.N,+10V*%
X126365000Y-49530000D03*
D20*
%TO.P,C8,2*%
%TO.N,GND*%
X124365000Y-49530000D03*
%TD*%
D23*
%TO.P,D5,4*%
%TO.N,Net-(D5-Pad4)*%
X127000000Y-90170000D03*
%TO.P,D5,2*%
%TO.N,Net-(D5-Pad2)*%
X121920000Y-85090000D03*
%TO.P,D5,3*%
%TO.N,GND*%
X121920000Y-90170000D03*
D24*
%TO.P,D5,1*%
%TO.N,Net-(C1-Pad1)*%
X127000000Y-85090000D03*
%TD*%
D25*
%TO.P,H4,1*%
%TO.N,GND*%
X44242056Y-100537944D03*
X42545000Y-99835000D03*
X40847944Y-100537944D03*
X40145000Y-102235000D03*
X40847944Y-103932056D03*
X42545000Y-104635000D03*
X44242056Y-103932056D03*
X44945000Y-102235000D03*
D17*
X42545000Y-102235000D03*
%TD*%
D15*
%TO.P,J1,1*%
%TO.N,Net-(BP1-Pad36)*%
X173990000Y-52705000D03*
D14*
%TO.P,J1,2*%
%TO.N,Net-(BP1-Pad35)*%
X173990000Y-55245000D03*
%TO.P,J1,3*%
%TO.N,GND*%
X173990000Y-57785000D03*
%TD*%
D26*
%TO.P,J2,1*%
%TO.N,Net-(J2-Pad1)*%
X44450000Y-66390000D03*
D27*
%TO.P,J2,2*%
%TO.N,Net-(J2-Pad2)*%
X44450000Y-72390000D03*
%TO.P,J2,3*%
%TO.N,GND*%
X44450000Y-78390000D03*
%TD*%
D15*
%TO.P,J3,1*%
%TO.N,Net-(BP1-Pad28)*%
X132715000Y-99695000D03*
D14*
%TO.P,J3,2*%
%TO.N,GND*%
X135255000Y-99695000D03*
%TO.P,J3,3*%
%TO.N,Net-(BP1-Pad27)*%
X137795000Y-99695000D03*
%TO.P,J3,4*%
%TO.N,GND*%
X140335000Y-99695000D03*
%TD*%
D15*
%TO.P,J5,1*%
%TO.N,GND*%
X192405000Y-43815000D03*
D14*
%TO.P,J5,2*%
%TO.N,+5V*%
X192405000Y-46355000D03*
%TO.P,J5,3*%
%TO.N,Net-(J5-Pad3)*%
X192405000Y-48895000D03*
%TO.P,J5,4*%
%TO.N,Net-(BP1-Pad32)*%
X192405000Y-51435000D03*
%TO.P,J5,5*%
%TO.N,Net-(BP1-Pad30)*%
X192405000Y-53975000D03*
%TO.P,J5,6*%
%TO.N,Net-(BP1-Pad29)*%
X192405000Y-56515000D03*
%TO.P,J5,7*%
%TO.N,Net-(BP1-Pad33)*%
X192405000Y-59055000D03*
%TO.P,J5,8*%
%TO.N,Net-(J5-Pad8)*%
X192405000Y-61595000D03*
%TO.P,J5,9*%
%TO.N,+5V*%
X192405000Y-64135000D03*
%TD*%
D28*
%TO.P,Q1,2*%
%TO.N,Net-(Q1-Pad2)*%
X186055000Y-47625000D03*
%TO.P,Q1,3*%
%TO.N,GND*%
X187325000Y-47625000D03*
D29*
%TO.P,Q1,1*%
%TO.N,Net-(Q1-Pad1)*%
X184785000Y-47625000D03*
%TD*%
D13*
%TO.P,R1,2*%
%TO.N,Net-(BP1-Pad13)*%
X173355000Y-80645000D03*
D20*
%TO.P,R1,1*%
%TO.N,Net-(D1-Pad2)*%
X183515000Y-80645000D03*
%TD*%
%TO.P,R2,1*%
%TO.N,Net-(BP1-Pad14)*%
X173355000Y-71755000D03*
D13*
%TO.P,R2,2*%
%TO.N,Net-(D2-Pad2)*%
X183515000Y-71755000D03*
%TD*%
%TO.P,R3,2*%
%TO.N,Net-(BP1-Pad15)*%
X173355000Y-76200000D03*
D20*
%TO.P,R3,1*%
%TO.N,Net-(D3-Pad2)*%
X183515000Y-76200000D03*
%TD*%
D13*
%TO.P,R4,2*%
%TO.N,Net-(Q1-Pad2)*%
X177800000Y-47625000D03*
D20*
%TO.P,R4,1*%
%TO.N,Net-(BP1-Pad16)*%
X177800000Y-57785000D03*
%TD*%
%TO.P,R5,1*%
%TO.N,Net-(Q1-Pad1)*%
X181610000Y-47625000D03*
D13*
%TO.P,R5,2*%
%TO.N,Net-(J5-Pad8)*%
X181610000Y-57785000D03*
%TD*%
D20*
%TO.P,R6,1*%
%TO.N,Net-(D4-Pad2)*%
X183515000Y-85090000D03*
D13*
%TO.P,R6,2*%
%TO.N,+5V*%
X173355000Y-85090000D03*
%TD*%
D30*
%TO.P,RV1,3*%
%TO.N,GND*%
X181530000Y-42545000D03*
%TO.P,RV1,2*%
%TO.N,Net-(J5-Pad3)*%
X179030000Y-40045000D03*
%TO.P,RV1,1*%
%TO.N,+5V*%
X176530000Y-42545000D03*
%TD*%
D14*
%TO.P,SW1,2*%
%TO.N,GND*%
X177165000Y-92710000D03*
D15*
%TO.P,SW1,1*%
%TO.N,Net-(BP1-Pad3)*%
X177165000Y-90170000D03*
%TD*%
%TO.P,SW2,1*%
%TO.N,Net-(BP1-Pad4)*%
X182880000Y-90170000D03*
D14*
%TO.P,SW2,2*%
%TO.N,GND*%
X182880000Y-92710000D03*
%TD*%
D19*
%TO.P,U2,1*%
%TO.N,Net-(C1-Pad1)*%
X123190000Y-36830000D03*
D18*
%TO.P,U2,2*%
%TO.N,GND*%
X125730000Y-36830000D03*
%TO.P,U2,3*%
%TO.N,+10V*%
X128270000Y-36830000D03*
%TD*%
D31*
%TO.N,Net-(BP1-Pad28)*%
X158750000Y-99060000D03*
%TO.N,Net-(BP1-Pad33)*%
X174625000Y-67310000D03*
%TO.N,Net-(J5-Pad3)*%
X172085000Y-43815000D03*
%TD*%
D32*
%TO.N,Net-(BP1-Pad28)*%
X158750000Y-99060000D02*
X158750000Y-100965000D01*
X158750000Y-100965000D02*
X157480000Y-102235000D01*
X135255000Y-102235000D02*
X132715000Y-99695000D01*
X157480000Y-102235000D02*
X135255000Y-102235000D01*
D33*
%TO.N,Net-(BP1-Pad29)*%
X165735000Y-73660000D02*
X167640000Y-73660000D01*
X167640000Y-73660000D02*
X170180000Y-71120000D01*
X170180000Y-71120000D02*
X170180000Y-68580000D01*
X170180000Y-68580000D02*
X173355000Y-65405000D01*
X173355000Y-65405000D02*
X186055000Y-65405000D01*
X186055000Y-65405000D02*
X189230000Y-62230000D01*
X189230000Y-62230000D02*
X189230000Y-57785000D01*
X190500000Y-56515000D02*
X192405000Y-56515000D01*
X189230000Y-57785000D02*
X190500000Y-56515000D01*
%TO.N,Net-(BP1-Pad30)*%
X189865000Y-53975000D02*
X192405000Y-53975000D01*
X187325000Y-61595000D02*
X187325000Y-56515000D01*
X187325000Y-56515000D02*
X189865000Y-53975000D01*
X172720000Y-63500000D02*
X185420000Y-63500000D01*
X168910000Y-67310000D02*
X172720000Y-63500000D01*
X168910000Y-69850000D02*
X168910000Y-67310000D01*
X167640000Y-71120000D02*
X168910000Y-69850000D01*
X185420000Y-63500000D02*
X187325000Y-61595000D01*
X165735000Y-71120000D02*
X167640000Y-71120000D01*
%TO.N,Net-(BP1-Pad32)*%
X165735000Y-66040000D02*
X167640000Y-66040000D01*
X167640000Y-66040000D02*
X172085000Y-61595000D01*
X172085000Y-61595000D02*
X184150000Y-61595000D01*
X184150000Y-61595000D02*
X185420000Y-60325000D01*
X185420000Y-60325000D02*
X185420000Y-55880000D01*
X185420000Y-55880000D02*
X189865000Y-51435000D01*
X189865000Y-51435000D02*
X192405000Y-51435000D01*
%TO.N,Net-(BP1-Pad13)*%
X150495000Y-76200000D02*
X151765000Y-76200000D01*
X151765000Y-76200000D02*
X153035000Y-77470000D01*
X153035000Y-77470000D02*
X168275000Y-77470000D01*
X171450000Y-80645000D02*
X173355000Y-80645000D01*
X168275000Y-77470000D02*
X171450000Y-80645000D01*
%TO.N,Net-(BP1-Pad33)*%
X192405000Y-59055000D02*
X191135000Y-59055000D01*
X191135000Y-59055000D02*
X190500000Y-59690000D01*
X190500000Y-59690000D02*
X190500000Y-63500000D01*
X186690000Y-67310000D02*
X174625000Y-67310000D01*
X190500000Y-63500000D02*
X186690000Y-67310000D01*
%TO.N,Net-(BP1-Pad14)*%
X147609998Y-77759998D02*
X148590000Y-78740000D01*
X148590000Y-78740000D02*
X150495000Y-78740000D01*
X147609998Y-75565000D02*
X147609998Y-77759998D01*
X148099999Y-75074999D02*
X147609998Y-75565000D01*
X170035001Y-75074999D02*
X148099999Y-75074999D01*
X173355000Y-71755000D02*
X170035001Y-75074999D01*
%TO.N,Net-(BP1-Pad35)*%
X165735000Y-58420000D02*
X167640000Y-58420000D01*
X170815000Y-55245000D02*
X173990000Y-55245000D01*
X167640000Y-58420000D02*
X170815000Y-55245000D01*
%TO.N,Net-(BP1-Pad16)*%
X143510000Y-81915000D02*
X145415000Y-83820000D01*
X143510000Y-62230000D02*
X143510000Y-81915000D01*
X146050000Y-59690000D02*
X143510000Y-62230000D01*
X170180000Y-59690000D02*
X146050000Y-59690000D01*
X170815000Y-60325000D02*
X170180000Y-59690000D01*
X177165000Y-60325000D02*
X170815000Y-60325000D01*
X145415000Y-83820000D02*
X150495000Y-83820000D01*
X177800000Y-59690000D02*
X177165000Y-60325000D01*
X177800000Y-57785000D02*
X177800000Y-59690000D01*
%TO.N,Net-(BP1-Pad36)*%
X165735000Y-55880000D02*
X167005000Y-55880000D01*
X170180000Y-52705000D02*
X173990000Y-52705000D01*
X167005000Y-55880000D02*
X170180000Y-52705000D01*
%TO.N,+5V*%
X170670001Y-87774999D02*
X173355000Y-85090000D01*
X151620001Y-87774999D02*
X170670001Y-87774999D01*
X150495000Y-88900000D02*
X151620001Y-87774999D01*
D34*
%TO.N,GND*%
X121920000Y-90170000D02*
X120015000Y-90170000D01*
X120015000Y-90170000D02*
X117475000Y-87630000D01*
X117475000Y-85130000D02*
X121960000Y-80645000D01*
X117475000Y-87630000D02*
X117475000Y-85130000D01*
X121960000Y-68540000D02*
X121960000Y-80645000D01*
X124460000Y-66040000D02*
X121960000Y-68540000D01*
X127120000Y-66040000D02*
X124460000Y-66040000D01*
D35*
X165735000Y-45720000D02*
X165735000Y-48260000D01*
X165735000Y-45720000D02*
X163195000Y-45720000D01*
X163195000Y-45720000D02*
X156845000Y-39370000D01*
X137795000Y-38100000D02*
X137795000Y-36830000D01*
X139065000Y-39370000D02*
X137795000Y-38100000D01*
X156845000Y-39370000D02*
X139065000Y-39370000D01*
X178355000Y-45720000D02*
X181530000Y-42545000D01*
X191135000Y-42545000D02*
X192405000Y-43815000D01*
X187325000Y-47625000D02*
X187325000Y-42545000D01*
X187325000Y-42545000D02*
X191135000Y-42545000D01*
X181530000Y-42545000D02*
X187325000Y-42545000D01*
D32*
X192405000Y-43815000D02*
X194310000Y-43815000D01*
X194310000Y-43815000D02*
X194945000Y-44450000D01*
X194945000Y-87630000D02*
X192405000Y-90170000D01*
X192405000Y-83185000D02*
X194945000Y-83185000D01*
X194945000Y-83185000D02*
X194945000Y-87630000D01*
X192405000Y-76200000D02*
X194945000Y-76200000D01*
X194945000Y-76200000D02*
X194945000Y-83185000D01*
X194945000Y-44450000D02*
X194945000Y-76200000D01*
X192405000Y-69215000D02*
X194945000Y-69215000D01*
X177165000Y-92710000D02*
X182880000Y-92710000D01*
D33*
X173990000Y-57785000D02*
X175260000Y-57785000D01*
X175895000Y-57150000D02*
X175895000Y-45720000D01*
X175260000Y-57785000D02*
X175895000Y-57150000D01*
D35*
X175895000Y-45720000D02*
X178355000Y-45720000D01*
X165735000Y-45720000D02*
X175895000Y-45720000D01*
%TO.N,Net-(C1-Pad1)*%
X135255000Y-36830000D02*
X134620000Y-36830000D01*
X133390000Y-38060000D02*
X133390000Y-41910000D01*
X134620000Y-36830000D02*
X133390000Y-38060000D01*
X120650000Y-41910000D02*
X120650000Y-43815000D01*
X120650000Y-43815000D02*
X122595000Y-45760000D01*
X133390000Y-41910000D02*
X133390000Y-45760000D01*
X134620000Y-66040000D02*
X134620000Y-53975000D01*
X133310000Y-52665000D02*
X133310000Y-45760000D01*
X134620000Y-53975000D02*
X133310000Y-52665000D01*
X133310000Y-45760000D02*
X133390000Y-45760000D01*
X122595000Y-45760000D02*
X133310000Y-45760000D01*
%TO.N,+10V*%
X129020001Y-52185001D02*
X129020001Y-53455001D01*
X126365000Y-49530000D02*
X129020001Y-52185001D01*
X129020001Y-53455001D02*
X130810000Y-55245000D01*
X130810000Y-55245000D02*
X130810000Y-92075000D01*
X130810000Y-92075000D02*
X127000000Y-95885000D01*
X127000000Y-95885000D02*
X125095000Y-95885000D01*
X121920000Y-99060000D02*
X121920000Y-99695000D01*
X125095000Y-95885000D02*
X121920000Y-99060000D01*
D32*
%TO.N,Net-(D1-Pad2)*%
X183515000Y-80645000D02*
X186690000Y-80645000D01*
X186690000Y-80645000D02*
X187960000Y-81915000D01*
X187960000Y-81915000D02*
X187960000Y-84455000D01*
X189230000Y-85725000D02*
X192405000Y-85725000D01*
X187960000Y-84455000D02*
X189230000Y-85725000D01*
%TO.N,Net-(D2-Pad2)*%
X183515000Y-71755000D02*
X192405000Y-71755000D01*
%TO.N,Net-(D3-Pad2)*%
X183515000Y-76200000D02*
X187325000Y-76200000D01*
X189865000Y-78740000D02*
X192405000Y-78740000D01*
X187325000Y-76200000D02*
X189865000Y-78740000D01*
%TO.N,Net-(D4-Pad2)*%
X183515000Y-85090000D02*
X184785000Y-85090000D01*
X184785000Y-85090000D02*
X187960000Y-88265000D01*
X187960000Y-88265000D02*
X187960000Y-92075000D01*
X188595000Y-92710000D02*
X192405000Y-92710000D01*
X187960000Y-92075000D02*
X188595000Y-92710000D01*
D34*
%TO.N,Net-(D5-Pad4)*%
X127000000Y-90170000D02*
X121285000Y-95885000D01*
X95330000Y-95885000D02*
X87230000Y-87785000D01*
X121285000Y-95885000D02*
X95330000Y-95885000D01*
D33*
%TO.N,Net-(J5-Pad3)*%
X172085000Y-43815000D02*
X172085000Y-42545000D01*
X174585000Y-40045000D02*
X179030000Y-40045000D01*
X172085000Y-42545000D02*
X174585000Y-40045000D01*
D32*
%TO.N,Net-(Q1-Pad2)*%
X177800000Y-47625000D02*
X177800000Y-49530000D01*
X177800000Y-49530000D02*
X179070000Y-50800000D01*
X179070000Y-50800000D02*
X185420000Y-50800000D01*
X186055000Y-50165000D02*
X186055000Y-47625000D01*
X185420000Y-50800000D02*
X186055000Y-50165000D01*
%TD*%
M02*
