%TF.GenerationSoftware,KiCad,Pcbnew,(6.0.2)*%
%TF.CreationDate,2022-03-15T19:59:36+01:00*%
%TF.ProjectId,GPSDO,47505344-4f2e-46b6-9963-61645f706362,rev?*%
%TF.SameCoordinates,Original*%
%TF.FileFunction,Copper,L2,Bot*%
%TF.FilePolarity,Positive*%
%FSLAX46Y46*%
G04 Gerber Fmt 4.6, Leading zero omitted, Abs format (unit mm)*
G04 Created by KiCad (PCBNEW (6.0.2)) date 2022-03-15 19:59:36*
%MOMM*%
%LPD*%
G01*
G04 APERTURE LIST*
G04 Aperture macros list*
%AMRoundRect*
0 Rectangle with rounded corners*
0 $1 Rounding radius*
0 $2 $3 $4 $5 $6 $7 $8 $9 X,Y pos of 4 corners*
0 Add a 4 corners polygon primitive as box body*
4,1,4,$2,$3,$4,$5,$6,$7,$8,$9,$2,$3,0*
0 Add four circle primitives for the rounded corners*
1,1,$1+$1,$2,$3*
1,1,$1+$1,$4,$5*
1,1,$1+$1,$6,$7*
1,1,$1+$1,$8,$9*
0 Add four rect primitives between the rounded corners*
20,1,$1+$1,$2,$3,$4,$5,0*
20,1,$1+$1,$4,$5,$6,$7,0*
20,1,$1+$1,$6,$7,$8,$9,0*
20,1,$1+$1,$8,$9,$2,$3,0*%
G04 Aperture macros list end*
%TA.AperFunction,ComponentPad*%
%ADD10R,1.600000X1.600000*%
%TD*%
%TA.AperFunction,ComponentPad*%
%ADD11O,1.600000X1.600000*%
%TD*%
%TA.AperFunction,ComponentPad*%
%ADD12O,1.700000X1.700000*%
%TD*%
%TA.AperFunction,ComponentPad*%
%ADD13R,1.700000X1.700000*%
%TD*%
%TA.AperFunction,ComponentPad*%
%ADD14C,3.000000*%
%TD*%
%TA.AperFunction,ComponentPad*%
%ADD15C,6.400000*%
%TD*%
%TA.AperFunction,ComponentPad*%
%ADD16O,1.905000X2.000000*%
%TD*%
%TA.AperFunction,ComponentPad*%
%ADD17R,1.905000X2.000000*%
%TD*%
%TA.AperFunction,ComponentPad*%
%ADD18C,1.600000*%
%TD*%
%TA.AperFunction,ComponentPad*%
%ADD19R,2.400000X2.400000*%
%TD*%
%TA.AperFunction,ComponentPad*%
%ADD20C,2.400000*%
%TD*%
%TA.AperFunction,ComponentPad*%
%ADD21O,2.000000X2.000000*%
%TD*%
%TA.AperFunction,ComponentPad*%
%ADD22R,2.000000X2.000000*%
%TD*%
%TA.AperFunction,ComponentPad*%
%ADD23C,0.800000*%
%TD*%
%TA.AperFunction,ComponentPad*%
%ADD24RoundRect,0.249999X-1.300001X1.300001X-1.300001X-1.300001X1.300001X-1.300001X1.300001X1.300001X0*%
%TD*%
%TA.AperFunction,ComponentPad*%
%ADD25C,3.100000*%
%TD*%
%TA.AperFunction,ComponentPad*%
%ADD26O,1.050000X1.500000*%
%TD*%
%TA.AperFunction,ComponentPad*%
%ADD27R,1.050000X1.500000*%
%TD*%
%TA.AperFunction,ComponentPad*%
%ADD28C,2.340000*%
%TD*%
%TA.AperFunction,ViaPad*%
%ADD29C,0.800000*%
%TD*%
%TA.AperFunction,Conductor*%
%ADD30C,0.250000*%
%TD*%
%TA.AperFunction,Conductor*%
%ADD31C,0.500000*%
%TD*%
%TA.AperFunction,Conductor*%
%ADD32C,1.000000*%
%TD*%
%TA.AperFunction,Conductor*%
%ADD33C,2.000000*%
%TD*%
G04 APERTURE END LIST*
D10*
%TO.P,BP1,1*%
%TO.N,Net-(BP1-Pad1)*%
X150495000Y-45720000D03*
D11*
%TO.P,BP1,21*%
%TO.N,Net-(BP1-Pad21)*%
X165735000Y-93980000D03*
%TO.P,BP1,2*%
%TO.N,Net-(BP1-Pad2)*%
X150495000Y-48260000D03*
%TO.P,BP1,22*%
%TO.N,Net-(BP1-Pad22)*%
X165735000Y-91440000D03*
%TO.P,BP1,3*%
%TO.N,Net-(BP1-Pad3)*%
X150495000Y-50800000D03*
%TO.P,BP1,23*%
%TO.N,Net-(BP1-Pad23)*%
X165735000Y-88900000D03*
%TO.P,BP1,4*%
%TO.N,Net-(BP1-Pad4)*%
X150495000Y-53340000D03*
%TO.P,BP1,24*%
%TO.N,Net-(BP1-Pad24)*%
X165735000Y-86360000D03*
%TO.P,BP1,5*%
%TO.N,Net-(BP1-Pad5)*%
X150495000Y-55880000D03*
%TO.P,BP1,25*%
%TO.N,Net-(BP1-Pad25)*%
X165735000Y-83820000D03*
%TO.P,BP1,6*%
%TO.N,Net-(BP1-Pad6)*%
X150495000Y-58420000D03*
%TO.P,BP1,26*%
%TO.N,Net-(BP1-Pad26)*%
X165735000Y-81280000D03*
%TO.P,BP1,7*%
%TO.N,Net-(BP1-Pad7)*%
X150495000Y-60960000D03*
%TO.P,BP1,27*%
%TO.N,Net-(BP1-Pad27)*%
X165735000Y-78740000D03*
%TO.P,BP1,8*%
%TO.N,Net-(BP1-Pad8)*%
X150495000Y-63500000D03*
%TO.P,BP1,28*%
%TO.N,Net-(BP1-Pad28)*%
X165735000Y-76200000D03*
%TO.P,BP1,9*%
%TO.N,Net-(BP1-Pad9)*%
X150495000Y-66040000D03*
%TO.P,BP1,29*%
%TO.N,Net-(BP1-Pad29)*%
X165735000Y-73660000D03*
%TO.P,BP1,10*%
%TO.N,Net-(BP1-Pad10)*%
X150495000Y-68580000D03*
%TO.P,BP1,30*%
%TO.N,Net-(BP1-Pad30)*%
X165735000Y-71120000D03*
%TO.P,BP1,11*%
%TO.N,Net-(BP1-Pad11)*%
X150495000Y-71120000D03*
%TO.P,BP1,31*%
%TO.N,Net-(BP1-Pad31)*%
X165735000Y-68580000D03*
%TO.P,BP1,12*%
%TO.N,Net-(BP1-Pad12)*%
X150495000Y-73660000D03*
%TO.P,BP1,32*%
%TO.N,Net-(BP1-Pad32)*%
X165735000Y-66040000D03*
%TO.P,BP1,13*%
%TO.N,Net-(BP1-Pad13)*%
X150495000Y-76200000D03*
%TO.P,BP1,33*%
%TO.N,Net-(BP1-Pad33)*%
X165735000Y-63500000D03*
%TO.P,BP1,14*%
%TO.N,Net-(BP1-Pad14)*%
X150495000Y-78740000D03*
%TO.P,BP1,34*%
%TO.N,Net-(BP1-Pad34)*%
X165735000Y-60960000D03*
%TO.P,BP1,15*%
%TO.N,Net-(BP1-Pad15)*%
X150495000Y-81280000D03*
%TO.P,BP1,35*%
%TO.N,Net-(BP1-Pad35)*%
X165735000Y-58420000D03*
%TO.P,BP1,16*%
%TO.N,Net-(BP1-Pad16)*%
X150495000Y-83820000D03*
%TO.P,BP1,36*%
%TO.N,Net-(BP1-Pad36)*%
X165735000Y-55880000D03*
%TO.P,BP1,17*%
%TO.N,Net-(BP1-Pad17)*%
X150495000Y-86360000D03*
%TO.P,BP1,37*%
%TO.N,Net-(BP1-Pad37)*%
X165735000Y-53340000D03*
%TO.P,BP1,18*%
%TO.N,+5V*%
X150495000Y-88900000D03*
%TO.P,BP1,38*%
%TO.N,Net-(BP1-Pad38)*%
X165735000Y-50800000D03*
%TO.P,BP1,19*%
%TO.N,GND*%
X150495000Y-91440000D03*
%TO.P,BP1,39*%
X165735000Y-48260000D03*
%TO.P,BP1,20*%
%TO.N,Net-(BP1-Pad20)*%
X150495000Y-93980000D03*
%TO.P,BP1,40*%
%TO.N,GND*%
X165735000Y-45720000D03*
%TD*%
D12*
%TO.P,J4,3*%
%TO.N,GND*%
X127000000Y-99695000D03*
%TO.P,J4,2*%
X124460000Y-99695000D03*
D13*
%TO.P,J4,1*%
%TO.N,+10V*%
X121920000Y-99695000D03*
%TD*%
D14*
%TO.P,T1,3*%
%TO.N,Net-(D5-Pad2)*%
X67230000Y-87785000D03*
%TO.P,T1,4*%
%TO.N,Net-(D5-Pad4)*%
X87230000Y-87785000D03*
%TO.P,T1,2*%
%TO.N,Net-(J2-Pad2)*%
X92230000Y-57785000D03*
%TO.P,T1,1*%
%TO.N,Net-(J2-Pad1)*%
X62230000Y-57785000D03*
%TD*%
D15*
%TO.P,H6,1*%
%TO.N,N/C*%
X110490000Y-36195000D03*
%TD*%
%TO.P,H5,1*%
%TO.N,N/C*%
X193675000Y-102235000D03*
%TD*%
%TO.P,H3,1*%
%TO.N,N/C*%
X193675000Y-36195000D03*
%TD*%
%TO.P,H2,1*%
%TO.N,N/C*%
X42545000Y-36195000D03*
%TD*%
%TO.P,H1,1*%
%TO.N,N/C*%
X110490000Y-102235000D03*
%TD*%
D16*
%TO.P,U1,3*%
%TO.N,+5V*%
X140335000Y-36830000D03*
%TO.P,U1,2*%
%TO.N,GND*%
X137795000Y-36830000D03*
D17*
%TO.P,U1,1*%
%TO.N,Net-(C1-Pad1)*%
X135255000Y-36830000D03*
%TD*%
D12*
%TO.P,D4,2*%
%TO.N,Net-(D4-Pad2)*%
X192405000Y-92710000D03*
D13*
%TO.P,D4,1*%
%TO.N,GND*%
X192405000Y-90170000D03*
%TD*%
D12*
%TO.P,D3,2*%
%TO.N,Net-(D3-Pad2)*%
X192405000Y-78740000D03*
D13*
%TO.P,D3,1*%
%TO.N,GND*%
X192405000Y-76200000D03*
%TD*%
D12*
%TO.P,D2,2*%
%TO.N,Net-(D2-Pad2)*%
X192405000Y-71755000D03*
D13*
%TO.P,D2,1*%
%TO.N,GND*%
X192405000Y-69215000D03*
%TD*%
D12*
%TO.P,D1,2*%
%TO.N,Net-(D1-Pad2)*%
X192405000Y-85725000D03*
D13*
%TO.P,D1,1*%
%TO.N,GND*%
X192405000Y-83185000D03*
%TD*%
D18*
%TO.P,C1,1*%
%TO.N,Net-(C1-Pad1)*%
X124460000Y-80645000D03*
%TO.P,C1,2*%
%TO.N,GND*%
X121960000Y-80645000D03*
%TD*%
D19*
%TO.P,C2,1*%
%TO.N,Net-(C1-Pad1)*%
X134620000Y-66040000D03*
D20*
%TO.P,C2,2*%
%TO.N,GND*%
X127120000Y-66040000D03*
%TD*%
D18*
%TO.P,C3,1*%
%TO.N,Net-(C1-Pad1)*%
X133390000Y-41910000D03*
%TO.P,C3,2*%
%TO.N,GND*%
X135890000Y-41910000D03*
%TD*%
%TO.P,C4,2*%
%TO.N,GND*%
X123150000Y-41910000D03*
%TO.P,C4,1*%
%TO.N,Net-(C1-Pad1)*%
X120650000Y-41910000D03*
%TD*%
%TO.P,C5,1*%
%TO.N,+5V*%
X142240000Y-41910000D03*
%TO.P,C5,2*%
%TO.N,GND*%
X139740000Y-41910000D03*
%TD*%
%TO.P,C6,2*%
%TO.N,GND*%
X127000000Y-41910000D03*
%TO.P,C6,1*%
%TO.N,+10V*%
X129500000Y-41910000D03*
%TD*%
%TO.P,C7,2*%
%TO.N,GND*%
X136430000Y-49530000D03*
D10*
%TO.P,C7,1*%
%TO.N,+5V*%
X138430000Y-49530000D03*
%TD*%
%TO.P,C8,1*%
%TO.N,+10V*%
X126365000Y-49530000D03*
D18*
%TO.P,C8,2*%
%TO.N,GND*%
X124365000Y-49530000D03*
%TD*%
D21*
%TO.P,D5,4*%
%TO.N,Net-(D5-Pad4)*%
X127000000Y-90170000D03*
%TO.P,D5,2*%
%TO.N,Net-(D5-Pad2)*%
X121920000Y-85090000D03*
%TO.P,D5,3*%
%TO.N,GND*%
X121920000Y-90170000D03*
D22*
%TO.P,D5,1*%
%TO.N,Net-(C1-Pad1)*%
X127000000Y-85090000D03*
%TD*%
D23*
%TO.P,H4,1*%
%TO.N,GND*%
X44242056Y-100537944D03*
X42545000Y-99835000D03*
X40847944Y-100537944D03*
X40145000Y-102235000D03*
X40847944Y-103932056D03*
X42545000Y-104635000D03*
X44242056Y-103932056D03*
X44945000Y-102235000D03*
D15*
X42545000Y-102235000D03*
%TD*%
D13*
%TO.P,J1,1*%
%TO.N,Net-(BP1-Pad36)*%
X173990000Y-52705000D03*
D12*
%TO.P,J1,2*%
%TO.N,Net-(BP1-Pad35)*%
X173990000Y-55245000D03*
%TO.P,J1,3*%
%TO.N,GND*%
X173990000Y-57785000D03*
%TD*%
D24*
%TO.P,J2,1*%
%TO.N,Net-(J2-Pad1)*%
X44450000Y-66390000D03*
D25*
%TO.P,J2,2*%
%TO.N,Net-(J2-Pad2)*%
X44450000Y-72390000D03*
%TO.P,J2,3*%
%TO.N,GND*%
X44450000Y-78390000D03*
%TD*%
D13*
%TO.P,J3,1*%
%TO.N,Net-(BP1-Pad28)*%
X132715000Y-99695000D03*
D12*
%TO.P,J3,2*%
%TO.N,GND*%
X135255000Y-99695000D03*
%TO.P,J3,3*%
%TO.N,Net-(BP1-Pad27)*%
X137795000Y-99695000D03*
%TO.P,J3,4*%
%TO.N,GND*%
X140335000Y-99695000D03*
%TD*%
D13*
%TO.P,J5,1*%
%TO.N,GND*%
X192405000Y-43815000D03*
D12*
%TO.P,J5,2*%
%TO.N,+5V*%
X192405000Y-46355000D03*
%TO.P,J5,3*%
%TO.N,Net-(J5-Pad3)*%
X192405000Y-48895000D03*
%TO.P,J5,4*%
%TO.N,Net-(BP1-Pad32)*%
X192405000Y-51435000D03*
%TO.P,J5,5*%
%TO.N,Net-(BP1-Pad30)*%
X192405000Y-53975000D03*
%TO.P,J5,6*%
%TO.N,Net-(BP1-Pad29)*%
X192405000Y-56515000D03*
%TO.P,J5,7*%
%TO.N,Net-(BP1-Pad33)*%
X192405000Y-59055000D03*
%TO.P,J5,8*%
%TO.N,Net-(J5-Pad8)*%
X192405000Y-61595000D03*
%TO.P,J5,9*%
%TO.N,+5V*%
X192405000Y-64135000D03*
%TD*%
D26*
%TO.P,Q1,2*%
%TO.N,Net-(Q1-Pad2)*%
X186055000Y-47625000D03*
%TO.P,Q1,3*%
%TO.N,GND*%
X187325000Y-47625000D03*
D27*
%TO.P,Q1,1*%
%TO.N,Net-(Q1-Pad1)*%
X184785000Y-47625000D03*
%TD*%
D11*
%TO.P,R1,2*%
%TO.N,Net-(BP1-Pad13)*%
X173355000Y-80645000D03*
D18*
%TO.P,R1,1*%
%TO.N,Net-(D1-Pad2)*%
X183515000Y-80645000D03*
%TD*%
%TO.P,R2,1*%
%TO.N,Net-(BP1-Pad14)*%
X173355000Y-71755000D03*
D11*
%TO.P,R2,2*%
%TO.N,Net-(D2-Pad2)*%
X183515000Y-71755000D03*
%TD*%
%TO.P,R3,2*%
%TO.N,Net-(BP1-Pad15)*%
X173355000Y-76200000D03*
D18*
%TO.P,R3,1*%
%TO.N,Net-(D3-Pad2)*%
X183515000Y-76200000D03*
%TD*%
D11*
%TO.P,R4,2*%
%TO.N,Net-(Q1-Pad2)*%
X177800000Y-47625000D03*
D18*
%TO.P,R4,1*%
%TO.N,Net-(BP1-Pad16)*%
X177800000Y-57785000D03*
%TD*%
%TO.P,R5,1*%
%TO.N,Net-(Q1-Pad1)*%
X181610000Y-47625000D03*
D11*
%TO.P,R5,2*%
%TO.N,Net-(J5-Pad8)*%
X181610000Y-57785000D03*
%TD*%
D18*
%TO.P,R6,1*%
%TO.N,Net-(D4-Pad2)*%
X183515000Y-85090000D03*
D11*
%TO.P,R6,2*%
%TO.N,+5V*%
X173355000Y-85090000D03*
%TD*%
D28*
%TO.P,RV1,3*%
%TO.N,GND*%
X181530000Y-42545000D03*
%TO.P,RV1,2*%
%TO.N,Net-(J5-Pad3)*%
X179030000Y-40045000D03*
%TO.P,RV1,1*%
%TO.N,+5V*%
X176530000Y-42545000D03*
%TD*%
D12*
%TO.P,SW1,2*%
%TO.N,GND*%
X177165000Y-92710000D03*
D13*
%TO.P,SW1,1*%
%TO.N,Net-(BP1-Pad3)*%
X177165000Y-90170000D03*
%TD*%
%TO.P,SW2,1*%
%TO.N,Net-(BP1-Pad4)*%
X182880000Y-90170000D03*
D12*
%TO.P,SW2,2*%
%TO.N,GND*%
X182880000Y-92710000D03*
%TD*%
D17*
%TO.P,U2,1*%
%TO.N,Net-(C1-Pad1)*%
X123190000Y-36830000D03*
D16*
%TO.P,U2,2*%
%TO.N,GND*%
X125730000Y-36830000D03*
%TO.P,U2,3*%
%TO.N,+10V*%
X128270000Y-36830000D03*
%TD*%
D29*
%TO.N,Net-(BP1-Pad28)*%
X158750000Y-99060000D03*
%TO.N,Net-(BP1-Pad33)*%
X174625000Y-67310000D03*
%TO.N,Net-(J5-Pad3)*%
X172085000Y-43815000D03*
%TD*%
D30*
%TO.N,Net-(BP1-Pad3)*%
X161925000Y-60960000D02*
X161925000Y-53975000D01*
X163339999Y-62374999D02*
X161925000Y-60960000D01*
X186690000Y-69215000D02*
X179849999Y-62374999D01*
X158750000Y-50800000D02*
X150495000Y-50800000D01*
X186690000Y-90170000D02*
X186690000Y-69215000D01*
X185420000Y-91440000D02*
X186690000Y-90170000D01*
X179705000Y-90170000D02*
X180975000Y-91440000D01*
X161925000Y-53975000D02*
X158750000Y-50800000D01*
X179849999Y-62374999D02*
X163339999Y-62374999D01*
X180975000Y-91440000D02*
X185420000Y-91440000D01*
X177165000Y-90170000D02*
X179705000Y-90170000D01*
%TO.N,Net-(BP1-Pad4)*%
X182880000Y-90170000D02*
X182245000Y-90170000D01*
X182245000Y-90170000D02*
X180340000Y-88265000D01*
X167495001Y-67165001D02*
X161780001Y-67165001D01*
X169545000Y-69215000D02*
X167495001Y-67165001D01*
X161780001Y-67165001D02*
X159385000Y-64770000D01*
X159385000Y-64770000D02*
X159385000Y-55880000D01*
X156845000Y-53340000D02*
X150495000Y-53340000D01*
X159385000Y-55880000D02*
X156845000Y-53340000D01*
X180340000Y-73025000D02*
X176530000Y-69215000D01*
X176530000Y-69215000D02*
X169545000Y-69215000D01*
X180340000Y-88265000D02*
X180340000Y-73025000D01*
D31*
%TO.N,Net-(BP1-Pad27)*%
X165735000Y-78740000D02*
X164465000Y-78740000D01*
X164465000Y-78740000D02*
X161925000Y-81280000D01*
X161925000Y-81280000D02*
X161925000Y-100965000D01*
X161925000Y-100965000D02*
X160655000Y-102235000D01*
X140335000Y-102235000D02*
X137795000Y-99695000D01*
X160655000Y-102235000D02*
X140335000Y-102235000D01*
%TO.N,Net-(BP1-Pad28)*%
X165735000Y-76200000D02*
X163195000Y-76200000D01*
X158750000Y-80645000D02*
X158750000Y-99060000D01*
X163195000Y-76200000D02*
X158750000Y-80645000D01*
D30*
%TO.N,Net-(BP1-Pad33)*%
X174625000Y-67310000D02*
X174625000Y-64770000D01*
X174625000Y-64770000D02*
X173355000Y-63500000D01*
X173355000Y-63500000D02*
X165735000Y-63500000D01*
%TO.N,Net-(BP1-Pad15)*%
X173355000Y-76200000D02*
X172085000Y-76200000D01*
X172085000Y-76200000D02*
X170815000Y-74930000D01*
X170815000Y-74930000D02*
X159385000Y-74930000D01*
X153035000Y-81280000D02*
X150495000Y-81280000D01*
X159385000Y-74930000D02*
X153035000Y-81280000D01*
D32*
%TO.N,+5V*%
X140335000Y-36830000D02*
X142240000Y-38735000D01*
X142240000Y-38735000D02*
X142240000Y-41910000D01*
D31*
X175895000Y-41910000D02*
X176530000Y-42545000D01*
X142240000Y-41910000D02*
X175895000Y-41910000D01*
D32*
X150495000Y-88900000D02*
X147320000Y-88900000D01*
X147320000Y-88900000D02*
X142240000Y-83820000D01*
X142240000Y-43815000D02*
X142240000Y-41910000D01*
X138430000Y-49530000D02*
X142240000Y-49530000D01*
X142240000Y-49530000D02*
X142240000Y-43815000D01*
X142240000Y-83820000D02*
X142240000Y-49530000D01*
D31*
X176530000Y-42545000D02*
X179070000Y-45085000D01*
X179070000Y-45085000D02*
X189865000Y-45085000D01*
X191135000Y-46355000D02*
X192405000Y-46355000D01*
X189865000Y-45085000D02*
X191135000Y-46355000D01*
X192405000Y-64135000D02*
X193675000Y-64135000D01*
X193675000Y-64135000D02*
X194945000Y-62865000D01*
X194945000Y-62865000D02*
X194945000Y-46990000D01*
X194310000Y-46355000D02*
X192405000Y-46355000D01*
X194945000Y-46990000D02*
X194310000Y-46355000D01*
D33*
%TO.N,GND*%
X121920000Y-90170000D02*
X116205000Y-95885000D01*
X48895000Y-95885000D02*
X42545000Y-102235000D01*
X44450000Y-78390000D02*
X49530000Y-83470000D01*
X49530000Y-83470000D02*
X49530000Y-95885000D01*
X49530000Y-95885000D02*
X48895000Y-95885000D01*
X116205000Y-95885000D02*
X49530000Y-95885000D01*
D32*
X125730000Y-36830000D02*
X125730000Y-41910000D01*
X125730000Y-41910000D02*
X127000000Y-41910000D01*
X123150000Y-41910000D02*
X125730000Y-41910000D01*
X137795000Y-36830000D02*
X137795000Y-41910000D01*
X135890000Y-41910000D02*
X137795000Y-41910000D01*
X139740000Y-41910000D02*
X137795000Y-41910000D01*
X135890000Y-48990000D02*
X136430000Y-49530000D01*
X135890000Y-41910000D02*
X135890000Y-48990000D01*
X123150000Y-48315000D02*
X124365000Y-49530000D01*
X123150000Y-41910000D02*
X123150000Y-48315000D01*
X124365000Y-63285000D02*
X127120000Y-66040000D01*
X124365000Y-49530000D02*
X124365000Y-63285000D01*
X136430000Y-56730000D02*
X127120000Y-66040000D01*
X136430000Y-49530000D02*
X136430000Y-56730000D01*
X124460000Y-99695000D02*
X127000000Y-99695000D01*
X150495000Y-91440000D02*
X144780000Y-91440000D01*
X140335000Y-95885000D02*
X140335000Y-99695000D01*
X144780000Y-91440000D02*
X140335000Y-95885000D01*
X135255000Y-99695000D02*
X135255000Y-95885000D01*
X135255000Y-95885000D02*
X140335000Y-95885000D01*
D33*
X127000000Y-99695000D02*
X127000000Y-95885000D01*
D32*
X127000000Y-95885000D02*
X135255000Y-95885000D01*
D33*
X116205000Y-95885000D02*
X127000000Y-95885000D01*
D31*
X182880000Y-92710000D02*
X186690000Y-92710000D01*
X189230000Y-90170000D02*
X192405000Y-90170000D01*
X186690000Y-92710000D02*
X189230000Y-90170000D01*
D32*
%TO.N,Net-(C1-Pad1)*%
X123190000Y-36830000D02*
X122555000Y-36830000D01*
X120650000Y-38735000D02*
X120650000Y-41910000D01*
X122555000Y-36830000D02*
X120650000Y-38735000D01*
D33*
X127000000Y-73660000D02*
X134620000Y-66040000D01*
X126365000Y-80645000D02*
X127000000Y-80010000D01*
X124460000Y-80645000D02*
X126365000Y-80645000D01*
X127000000Y-80010000D02*
X127000000Y-73660000D01*
X127000000Y-85090000D02*
X127000000Y-80010000D01*
D32*
%TO.N,+10V*%
X128270000Y-36830000D02*
X129540000Y-38100000D01*
X129500000Y-38140000D02*
X129500000Y-41910000D01*
X129540000Y-38100000D02*
X129500000Y-38140000D01*
X129500000Y-41910000D02*
X129500000Y-45045000D01*
X129500000Y-45045000D02*
X129540000Y-45085000D01*
X129540000Y-46355000D02*
X126365000Y-49530000D01*
X129540000Y-45085000D02*
X129540000Y-46355000D01*
D33*
%TO.N,Net-(D5-Pad2)*%
X67230000Y-87785000D02*
X71830000Y-83185000D01*
X71830000Y-83185000D02*
X114935000Y-83185000D01*
X116840000Y-85090000D02*
X121920000Y-85090000D01*
X114935000Y-83185000D02*
X116840000Y-85090000D01*
%TO.N,Net-(J2-Pad1)*%
X53625000Y-66390000D02*
X62230000Y-57785000D01*
X44450000Y-66390000D02*
X53625000Y-66390000D01*
D30*
%TO.N,Net-(J5-Pad3)*%
X192405000Y-48895000D02*
X190500000Y-48895000D01*
X190500000Y-48895000D02*
X188595000Y-50800000D01*
X188595000Y-50800000D02*
X177165000Y-50800000D01*
X172085000Y-45720000D02*
X172085000Y-43815000D01*
X177165000Y-50800000D02*
X172085000Y-45720000D01*
D32*
%TO.N,Net-(J5-Pad8)*%
X185420000Y-61595000D02*
X181610000Y-57785000D01*
X192405000Y-61595000D02*
X185420000Y-61595000D01*
%TO.N,Net-(Q1-Pad1)*%
X184785000Y-47625000D02*
X181610000Y-47625000D01*
D33*
%TO.N,Net-(J2-Pad2)*%
X44450000Y-72390000D02*
X59690000Y-72390000D01*
X74295000Y-57785000D02*
X92230000Y-57785000D01*
X59690000Y-72390000D02*
X74295000Y-57785000D01*
%TD*%
M02*
