M48
; DRILL file {KiCad (6.0.2)} date Tue Mar 15 19:59:32 2022
; FORMAT={-:-/ absolute / inch / decimal}
; #@! TF.CreationDate,2022-03-15T19:59:32+01:00
; #@! TF.GenerationSoftware,Kicad,Pcbnew,(6.0.2)
; #@! TF.FileFunction,Plated,1,2,PTH
FMAT,2
INCH
; #@! TA.AperFunction,Plated,PTH,ViaDrill
T1C0.0157
; #@! TA.AperFunction,Plated,PTH,ComponentDrill
T2C0.0197
; #@! TA.AperFunction,Plated,PTH,ComponentDrill
T3C0.0295
; #@! TA.AperFunction,Plated,PTH,ComponentDrill
T4C0.0315
; #@! TA.AperFunction,Plated,PTH,ComponentDrill
T5C0.0394
; #@! TA.AperFunction,Plated,PTH,ComponentDrill
T6C0.0433
; #@! TA.AperFunction,Plated,PTH,ComponentDrill
T7C0.0472
; #@! TA.AperFunction,Plated,PTH,ComponentDrill
T8C0.0512
; #@! TA.AperFunction,Plated,PTH,ComponentDrill
T9C0.0827
; #@! TA.AperFunction,Plated,PTH,ComponentDrill
T10C0.1260
%
G90
G05
T1
X6.25Y-3.9
X6.775Y-1.725
X6.875Y-2.65
T2
X1.5805Y-4.025
X1.6082Y-3.9582
X1.6082Y-4.0918
X1.675Y-3.9305
X1.675Y-4.1195
X1.7418Y-3.9582
X1.7418Y-4.0918
X1.7695Y-4.025
T3
X7.275Y-1.875
X7.325Y-1.875
X7.375Y-1.875
T4
X4.75Y-1.65
X4.8016Y-3.175
X4.8484Y-1.65
X4.8963Y-1.95
X4.9Y-3.175
X4.975Y-1.95
X5.0Y-1.65
X5.0984Y-1.65
X5.2516Y-1.65
X5.35Y-1.65
X5.3713Y-1.95
X5.45Y-1.95
X5.5016Y-1.65
X5.6Y-1.65
X5.925Y-1.8
X5.925Y-1.9
X5.925Y-2.0
X5.925Y-2.1
X5.925Y-2.2
X5.925Y-2.3
X5.925Y-2.4
X5.925Y-2.5
X5.925Y-2.6
X5.925Y-2.7
X5.925Y-2.8
X5.925Y-2.9
X5.925Y-3.0
X5.925Y-3.1
X5.925Y-3.2
X5.925Y-3.3
X5.925Y-3.4
X5.925Y-3.5
X5.925Y-3.6
X5.925Y-3.7
X6.525Y-1.8
X6.525Y-1.9
X6.525Y-2.0
X6.525Y-2.1
X6.525Y-2.2
X6.525Y-2.3
X6.525Y-2.4
X6.525Y-2.5
X6.525Y-2.6
X6.525Y-2.7
X6.525Y-2.8
X6.525Y-2.9
X6.525Y-3.0
X6.525Y-3.1
X6.525Y-3.2
X6.525Y-3.3
X6.525Y-3.4
X6.525Y-3.5
X6.525Y-3.6
X6.525Y-3.7
X6.825Y-2.825
X6.825Y-3.0
X6.825Y-3.175
X6.825Y-3.35
X7.0Y-1.875
X7.0Y-2.275
X7.15Y-1.875
X7.15Y-2.275
X7.225Y-2.825
X7.225Y-3.0
X7.225Y-3.175
X7.225Y-3.35
T5
X4.8Y-3.35
X4.8Y-3.55
X4.8Y-3.925
X4.9Y-3.925
X5.0Y-3.35
X5.0Y-3.55
X5.0Y-3.925
X5.225Y-3.925
X5.325Y-3.925
X5.425Y-3.925
X5.525Y-3.925
X6.85Y-2.075
X6.85Y-2.175
X6.85Y-2.275
X6.975Y-3.55
X6.975Y-3.65
X7.2Y-3.55
X7.2Y-3.65
X7.575Y-1.725
X7.575Y-1.825
X7.575Y-1.925
X7.575Y-2.025
X7.575Y-2.125
X7.575Y-2.225
X7.575Y-2.325
X7.575Y-2.425
X7.575Y-2.525
X7.575Y-2.725
X7.575Y-2.825
X7.575Y-3.0
X7.575Y-3.1
X7.575Y-3.275
X7.575Y-3.375
X7.575Y-3.55
X7.575Y-3.65
T6
X4.85Y-1.45
X4.95Y-1.45
X5.05Y-1.45
X5.325Y-1.45
X5.425Y-1.45
X5.525Y-1.45
T7
X2.45Y-2.275
X2.6469Y-3.4561
X3.4343Y-3.4561
X3.6311Y-2.275
X5.0047Y-2.6
X5.3Y-2.6
T8
X6.95Y-1.675
X7.0484Y-1.5766
X7.1469Y-1.675
T9
X1.75Y-2.6138
X1.75Y-2.85
X1.75Y-3.0862
T10
X1.675Y-1.425
X1.675Y-4.025
X4.35Y-1.425
X4.35Y-4.025
X7.625Y-1.425
X7.625Y-4.025
T0
M30
